<svg xmlns="http://www.w3.org/2000/svg" width="19" height="19" viewBox="0 0 19 19">
    <path fill="#2B2A27" d="M6.096 14.25c1.18 0 2.137.957 2.137 2.137 0 1.181-.957 2.138-2.137 2.138-1.18 0-2.138-.957-2.138-2.138 0-1.18.957-2.137 2.138-2.137zm9.5 0c1.18 0 2.137.957 2.137 2.137 0 1.181-.957 2.138-2.137 2.138-1.18 0-2.138-.957-2.138-2.138 0-1.18.957-2.137 2.138-2.137zm-9.5 1.108c-.569 0-1.03.461-1.03 1.03 0 .568.461 1.029 1.03 1.029.568 0 1.029-.461 1.029-1.03 0-.568-.46-1.029-1.03-1.029zm9.5 0c-.569 0-1.03.461-1.03 1.03 0 .568.461 1.029 1.03 1.029.568 0 1.029-.461 1.029-1.03 0-.568-.46-1.029-1.03-1.029zM2.336 0c1.027.002 1.901.732 2.095 1.728l.021.131.277 2.1H17.97c.323 0 .571.272.553.584l-.01.078-1.33 6.642c-.193.97-1.025 1.676-1.994 1.719l-.132.001H6.694c-1.035.01-1.92-.723-2.116-1.726l-.021-.133-1.204-9.12c-.062-.478-.446-.843-.916-.89l-.102-.006H.555C.247 1.108 0 .86 0 .554 0 .274.208.042.479.005L.554 0h1.782zm14.958 5.067H4.875l.78 5.913c.064.48.453.848.93.89l.105.005h8.378c.465.009.874-.294 1.006-.733l.023-.096 1.197-5.98z"/>
</svg>
