<svg xmlns="http://www.w3.org/2000/svg" width="24" height="20" viewBox="0 0 24 20">
    <path d="M7 11.4c.331 0 .6.269.6.6 0 .298-.218.546-.503.592L7 12.6l-2.401-.001L4.6 19c0 .331-.269.6-.6.6-.298 0-.546-.218-.592-.503L3.4 19l-.001-6.401L1 12.6c-.331 0-.6-.269-.6-.6 0-.298.218-.546.503-.592L1 11.4h6zm5-2c.298 0 .546.218.592.503L12.6 10v9c0 .331-.269.6-.6.6-.298 0-.546-.218-.592-.503L11.4 19v-9c0-.331.269-.6.6-.6zm11 4c.331 0 .6.269.6.6 0 .298-.218.546-.503.592L23 14.6l-2.401-.001L20.6 19c0 .331-.269.6-.6.6-.298 0-.546-.218-.592-.503L19.4 19l-.001-4.401L17 14.6c-.331 0-.6-.269-.6-.6 0-.298.218-.546.503-.592L17 13.4h6zm-3-13c.298 0 .546.218.592.503L20.6 1v9c0 .331-.269.6-.6.6-.298 0-.546-.218-.592-.503L19.4 10V1c0-.331.269-.6.6-.6zM4 .4c.298 0 .546.218.592.503L4.6 1v7c0 .331-.269.6-.6.6-.298 0-.546-.218-.592-.503L3.4 8V1c0-.331.269-.6.6-.6zm8 0c.298 0 .546.218.592.503L12.6 1l-.001 4.399L15 5.4c.331 0 .6.269.6.6 0 .298-.218.546-.503.592L15 6.6H9c-.331 0-.6-.269-.6-.6 0-.298.218-.546.503-.592L9 5.4l2.399-.001L11.4 1c0-.331.269-.6.6-.6z"/>
</svg>
