<svg xmlns="http://www.w3.org/2000/svg" width="28" height="14" viewBox="0 0 28 14">
    <path fill="#1E1B15" d="M6.576.576c.234-.235.614-.235.848 0 .235.234.235.614 0 .848L2.448 6.4H27c.298 0 .546.218.592.503L27.6 7c0 .331-.269.6-.6.6H2.448l4.976 4.976c.209.208.232.531.07.765l-.07.083c-.234.235-.614.235-.848 0l-6-6-.06-.07-.006-.008-.015-.021C.482 7.304.47 7.282.458 7.258l-.012-.027c-.008-.02-.016-.04-.022-.062l-.01-.038C.405 7.09.4 7.045.4 7l.004.068C.402 7.055.4 7.042.4 7.028L.4 7v-.028l.004-.041c.002-.022.006-.043.01-.063l.01-.037c.006-.021.014-.042.022-.063l.012-.026c.011-.024.024-.046.038-.067.022-.035.049-.068.08-.1l-.066.08c.02-.029.042-.055.066-.08z"/>
</svg>
