<svg xmlns="http://www.w3.org/2000/svg" width="16" height="16" viewBox="0 0 16 16">
    <path fill="#FFD10A" d="M8 0c4.418 0 8 3.582 8 8s-3.582 8-8 8-8-3.582-8-8 3.582-8 8-8zm0 1.455c-3.615 0-6.545 2.93-6.545 6.545 0 3.615 2.93 6.545 6.545 6.545 3.615 0 6.545-2.93 6.545-6.545 0-3.615-2.93-6.545-6.545-6.545zm0 1.454c.373 0 .68.28.722.643l.005.084v4.062l1.97 1.97c.261.262.281.674.06.96l-.06.068c-.263.262-.676.282-.96.06l-.07-.06-2.181-2.182c-.114-.113-.186-.26-.207-.418L7.273 8V3.636c0-.401.325-.727.727-.727z"/>
</svg>
