<svg xmlns="http://www.w3.org/2000/svg" width="19" height="19" viewBox="0 0 19 19">
    <path d="M6.096 14.488c1.18 0 2.137.956 2.137 2.137 0 1.18-.957 2.137-2.137 2.137-1.18 0-2.138-.956-2.138-2.137 0-1.18.957-2.137 2.138-2.137zm9.5 0c1.18 0 2.137.956 2.137 2.137 0 1.18-.957 2.137-2.137 2.137-1.18 0-2.138-.956-2.138-2.137 0-1.18.957-2.137 2.138-2.137zm-9.5 1.108c-.569 0-1.03.46-1.03 1.029 0 .568.461 1.03 1.03 1.03.568 0 1.029-.462 1.029-1.03 0-.568-.46-1.03-1.03-1.03zm9.5 0c-.569 0-1.03.46-1.03 1.029 0 .568.461 1.03 1.03 1.03.568 0 1.029-.462 1.029-1.03 0-.568-.46-1.03-1.03-1.03zM2.336.238c1.027.001 1.901.731 2.095 1.727l.021.132.277 2.099H17.97c.323 0 .571.273.553.584l-.01.079-1.33 6.641c-.193.971-1.025 1.677-1.994 1.72H6.694c-1.035.01-1.92-.723-2.116-1.726l-.021-.132-1.204-9.12c-.062-.478-.446-.844-.916-.891l-.102-.005H.555C.247 1.346 0 1.098 0 .792c0-.28.208-.513.479-.55L.554.238h1.782zm14.958 5.066H4.875l.78 5.913c.064.481.453.848.93.891l.105.005h8.378c.465.009.874-.295 1.006-.734l.023-.096 1.197-5.979z"/>
</svg>
