<svg xmlns="http://www.w3.org/2000/svg" width="30" height="30" viewBox="0 0 30 30">
    <path fill="#FFF" d="M25.605 0C28.03 0 30 1.971 30 4.395v21.21C30 28.03 28.029 30 25.605 30H4.395C1.97 30 0 28.029 0 25.605V4.395C0 1.97 1.971 0 4.395 0zm0 1.758H4.395c-1.454 0-2.637 1.183-2.637 2.637v21.21c0 1.454 1.183 2.637 2.637 2.637h21.21c1.454 0 2.637-1.183 2.637-2.637V4.395c0-1.454-1.183-2.637-2.637-2.637zM15 7.09c4.362 0 7.91 3.548 7.91 7.91s-3.548 7.91-7.91 7.91S7.09 19.362 7.09 15 10.638 7.09 15 7.09zm0 1.758c-3.392 0-6.152 2.76-6.152 6.152 0 3.392 2.76 6.152 6.152 6.152 3.392 0 6.152-2.76 6.152-6.152 0-3.392-2.76-6.152-6.152-6.152zm8.79-5.274c1.453 0 2.636 1.183 2.636 2.637s-1.183 2.637-2.637 2.637-2.637-1.183-2.637-2.637 1.183-2.637 2.637-2.637zm0 1.758c-.485 0-.88.394-.88.879 0 .484.395.879.88.879.484 0 .878-.395.878-.88 0-.484-.394-.878-.879-.878z"/>
</svg>
