<svg xmlns="http://www.w3.org/2000/svg" width="35" height="25" viewBox="0 0 35 25">
    <path fill="#FFF" d="M17.82 0c1.823.008 10.914.076 13.374.75 1.5.403 2.681 1.585 3.085 3.084.647 2.366.714 6.946.72 8.151v.43c-.005.875-.065 5.795-.72 8.285-.404 1.499-1.586 2.681-3.085 3.085-2.507.66-11.896.715-13.47.72h-.448c-1.57-.005-10.937-.063-13.47-.749-1.5-.404-2.682-1.586-3.085-3.085-.64-2.402-.712-7.16-.72-8.21v-.416c.008-1.045.08-5.783.72-8.21.403-1.5 1.614-2.71 3.084-3.114C6.265.073 15.356.007 17.18 0zM14.01 7.007V17.5l9.11-5.247-9.11-5.247z"/>
</svg>
