<svg xmlns="http://www.w3.org/2000/svg" width="110" height="30" viewBox="0 0 110 30">
    <g fill="#FFF" fill-rule="evenodd">
        <path d="M9.89 26.965l9.972-10.101c.375-.38.375-.988 0-1.368-.375-.38-.974-.38-1.35 0l-6.197 6.277-5.128 5.192H9.89zM18.64 3.9L6.656 16.04c-.902.913.474 2.243 1.344 1.362L18.64 6.624V3.9zM5.062 14.425L17.049 2.283h-2.717L3.706 13.053c-.968.98-1.453 2.267-1.453 3.553 0 1.285.485 2.572 1.453 3.552.97.982 2.239 1.473 3.508 1.473 1.27 0 2.54-.49 3.508-1.473l6.196-6.276c1.249-1.266 3.289-1.266 4.538 0 1.25 1.266 1.251 3.33 0 4.596l-8.382 8.487h2.703l7.029-7.12c.968-.98 1.453-2.267 1.453-3.553 0-1.285-.485-2.572-1.453-3.553-.969-.981-2.239-1.472-3.508-1.472-1.27 0-2.54.49-3.507 1.472l-6.197 6.277c-1.247 1.263-3.285 1.263-4.532 0-1.248-1.265-1.249-3.325 0-4.59zM20.894 0v7.57l-1.4 1.417c1.78.049 3.547.761 4.906 2.137 1.408 1.427 2.113 3.298 2.113 5.168 0 1.725-.633 3.614-1.828 4.868l-.143.15c-2.68 2.783-5.245 5.319-7.83 7.938H1.764l5.253-5.337c-1.78-.05-3.546-.762-4.905-2.138C.703 20.346 0 18.476 0 16.606c0-1.871.704-3.741 2.113-5.168L13.41 0h7.484z"/>
        <path fill-rule="nonzero" d="M32.026 17.645c.667.404 1.278.684 1.83.838.553.154 1.07.231 1.548.231.789 0 1.384-.118 1.785-.355.401-.236.602-.557.602-.961 0-.226-.062-.415-.187-.566-.125-.15-.305-.277-.541-.38-.236-.103-.533-.194-.89-.273l-.455-.097c-.24-.05-.5-.101-.78-.155-.35-.055-.727-.133-1.132-.236-.405-.103-.78-.264-1.128-.484-.347-.219-.635-.512-.865-.879-.229-.367-.343-.841-.343-1.424 0-.494.087-.944.262-1.352.176-.408.446-.761.81-1.06.364-.298.826-.53 1.385-.694.56-.164 1.224-.247 1.993-.247.796 0 1.539.09 2.23.268.691.178 1.347.425 1.967.74l-.667 1.954c-.25-.11-.513-.22-.79-.329-.276-.11-.56-.207-.854-.293-.293-.086-.591-.154-.895-.206-.303-.051-.61-.077-.92-.077-.378 0-.695.036-.951.108-.256.072-.464.168-.622.288-.159.12-.272.257-.339.411-.067.155-.101.31-.101.468 0 .364.194.635.581.813.388.178 1 .315 1.836.411.506.082 1.003.184 1.492.303.489.12.926.292 1.31.515.384.222.694.517.93.884.236.367.354.842.354 1.424 0 .556-.116 1.054-.348 1.497-.233.442-.562.814-.987 1.115-.424.302-.932.533-1.522.695-.59.16-1.242.241-1.957.241-.411 0-.802-.017-1.173-.051-.371-.034-.734-.091-1.088-.17-.354-.079-.703-.187-1.046-.324-.344-.137-.695-.308-1.052-.514l.718-2.077zm10.89-10.778l1.8-.01V9.87h3.318v2.16h-3.327v4.33c0 .424.049.776.146 1.053.098.278.23.497.395.658.165.162.359.275.581.34.223.065.459.098.708.098h1.78l-.02 2.056h-1.992c-.56 0-1.086-.058-1.578-.175-.492-.116-.92-.33-1.285-.642-.364-.312-.652-.739-.864-1.28-.213-.542-.319-1.238-.319-2.088v-4.35h-1.74v-1.934l1.68-.473.717-2.756zM56.993 19.25c-.27.233-.57.442-.9.627-.33.185-.676.34-1.037.463-.36.123-.73.218-1.107.283-.378.065-.752.094-1.123.087-.499-.007-.97-.077-1.411-.21-.442-.134-.828-.343-1.158-.628-.33-.284-.593-.65-.789-1.095-.196-.446-.293-.987-.293-1.625 0-.583.138-1.064.414-1.445.277-.38.65-.684 1.118-.91.469-.226 1.018-.386 1.649-.478.63-.093 1.3-.139 2.007-.139.203 0 .421.003.656.008l1.118.03c.203.006.401.01.593.014v-.957c0-.226-.054-.44-.162-.643-.108-.202-.266-.378-.475-.53-.21-.15-.469-.27-.779-.36-.31-.088-.667-.133-1.072-.133-.317 0-.619.04-.905.118-.287.08-.536.182-.749.309-.212.127-.38.276-.505.447-.125.172-.188.35-.188.535h-2.478c.014-.555.144-1.049.39-1.48.246-.433.581-.796 1.006-1.09.425-.296.926-.518 1.502-.67.577-.15 1.199-.226 1.866-.226.796 0 1.506.086 2.13.258.623.17 1.15.413 1.577.725.428.311.754.685.976 1.12.223.436.334.914.334 1.435v7.363h-2.003l-.202-1.203zm-3.287-.514c.31 0 .625-.04.946-.118.32-.08.62-.186.9-.32.28-.133.522-.294.728-.483.206-.188.356-.396.45-.622v-1.224l-.722-.018-.259-.007c-.35-.01-.708-.016-1.072-.016-.378 0-.745.02-1.103.057-.357.038-.674.104-.95.2-.277.096-.501.23-.673.401-.172.172-.258.395-.258.669s.052.506.157.694c.104.189.248.343.43.463s.396.204.642.252c.246.048.507.072.784.072zm14.107-6.674l-1.224.01c-.479 0-.91.07-1.295.21-.384.141-.713.35-.986.628s-.482.624-.627 1.039c-.145.415-.217.893-.217 1.434v5.07h-2.458V9.87h1.993l.222 1.265c.35-.363.794-.665 1.33-.905s1.172-.36 1.907-.36h1.355v2.19zm20.608-2.19l-4.289 10.581h-2.225l-2.215-5.245-1.982 5.245h-2.235L71.196 9.87h2.64l2.58 6.654.15.607h.041l.162-.607 1.73-4.155-1.052-2.499h2.64l2.76 6.654.153.607h.05l.142-.607L85.77 9.87h2.65zm7.684 9.378c-.27.233-.57.442-.9.627-.33.185-.676.34-1.037.463-.36.123-.73.218-1.107.283-.378.065-.752.094-1.123.087-.499-.007-.97-.077-1.41-.21-.442-.134-.828-.343-1.159-.628-.33-.284-.593-.65-.789-1.095-.195-.446-.293-.987-.293-1.625 0-.583.138-1.064.415-1.445.276-.38.649-.684 1.117-.91.469-.226 1.018-.386 1.649-.478.63-.093 1.3-.139 2.008-.139.202 0 .42.003.656.008l1.117.03c.204.006.401.01.593.014v-.957c0-.226-.054-.44-.161-.643-.108-.202-.267-.378-.476-.53-.209-.15-.468-.27-.779-.36-.31-.088-.667-.133-1.072-.133-.317 0-.618.04-.905.118-.287.08-.536.182-.748.309-.213.127-.381.276-.506.447-.125.172-.187.35-.187.535H88.53c.013-.555.143-1.049.39-1.48.245-.433.58-.796 1.005-1.09.425-.296.926-.518 1.502-.67.577-.15 1.199-.226 1.867-.226.795 0 1.505.086 2.129.258.623.17 1.15.413 1.577.725.429.311.754.685.977 1.12.222.436.333.914.333 1.435v7.363h-2.002l-.203-1.203zm-3.287-.514c.31 0 .626-.04.946-.118.32-.08.62-.186.9-.32.28-.133.523-.294.728-.483.206-.188.356-.396.45-.622v-1.224l-.722-.018-.259-.007c-.35-.01-.708-.016-1.072-.016-.377 0-.745.02-1.102.057-.358.038-.675.104-.951.2-.277.096-.5.23-.673.401-.172.172-.258.395-.258.669s.053.506.157.694c.105.189.248.343.43.463s.396.204.642.252c.246.048.508.072.784.072zM110 9.87l-4.45 10.346c-.324.788-.626 1.429-.906 1.923-.28.493-.58.877-.9 1.151-.32.275-.68.461-1.082.56-.401.1-.882.15-1.441.15h-1.629l-.01-2.057h1.78c.216 0 .401-.05.557-.149.155-.1.295-.24.42-.421.124-.182.24-.402.348-.659l.26-.627.094-.231-4.248-9.986h2.721l2.771 6.726.122.535 2.953-7.25 2.64-.01z"/>
    </g>
</svg>
