<svg xmlns="http://www.w3.org/2000/svg" width="16" height="14" viewBox="0 0 16 14">
    <path fill="#FFD10A" d="M0 2.156v-.01C.02.96.992 0 2.182 0h11.636C15.02 0 16 .98 16 2.182v8.727c0 1.202-.98 2.182-2.182 2.182H2.182C.98 13.09 0 12.11 0 10.909V2.156zm14.545 1.422l-6.128 4.29c-.223.156-.51.174-.748.052l-.086-.051-6.129-4.291v7.331c0 .365.277.672.63.72l.098.007h11.636c.399 0 .727-.329.727-.727V3.578zm-.727-2.123H2.182c-.282 0-.53.165-.65.402L8 6.385l6.468-4.528c-.12-.237-.368-.402-.65-.402z"/>
</svg>
