<svg xmlns="http://www.w3.org/2000/svg" width="16" height="20" viewBox="0 0 16 20">
    <path fill="#FFD10A" d="M8 0c4.418 0 8 3.582 8 8 0 2.697-1.442 5.34-3.82 7.85-.814.86-1.685 1.645-2.557 2.338-.152.122-.3.236-.441.344l-.404.3-.334.234c-.269.179-.619.179-.888 0l-.334-.235c-.256-.185-.54-.4-.845-.643-.872-.693-1.743-1.477-2.558-2.338C1.442 13.34 0 10.697 0 8c0-4.418 3.582-8 8-8zm0 1.6C4.465 1.6 1.6 4.465 1.6 8c0 2.203 1.258 4.51 3.38 6.75.76.802 1.577 1.537 2.393 2.187.143.113.28.22.412.32l.215.16.417-.315.21-.165c.816-.65 1.632-1.385 2.392-2.187C13.142 12.51 14.4 10.203 14.4 8c0-3.535-2.865-6.4-6.4-6.4zm0 3.2c1.767 0 3.2 1.433 3.2 3.2 0 1.767-1.433 3.2-3.2 3.2-1.767 0-3.2-1.433-3.2-3.2 0-1.767 1.433-3.2 3.2-3.2zm0 1.6c-.884 0-1.6.716-1.6 1.6 0 .884.716 1.6 1.6 1.6.884 0 1.6-.716 1.6-1.6 0-.884-.716-1.6-1.6-1.6z"/>
</svg>
