<svg xmlns="http://www.w3.org/2000/svg" width="16" height="16" viewBox="0 0 16 16">
    <path fill="#FFD10A" d="M4.347 0h-2.17C1.563 0 .98.258.568.71.157 1.16-.046 1.765.01 2.374.26 4.742 1.062 7.007 2.35 8.997c1.168 1.838 2.731 3.401 4.575 4.573 1.975 1.28 4.23 2.082 6.576 2.337.623.057 1.23-.148 1.68-.562.453-.415.709-1 .706-1.614v-2.175c.028-1.087-.778-2.038-1.873-2.192-.649-.086-1.28-.243-1.887-.47l-.141-.047c-.758-.227-1.586-.024-2.155.538l-.522.522-.087-.054C7.95 9.025 6.863 7.94 6.035 6.666l-.054-.087.52-.52c.6-.607.791-1.504.492-2.3-.226-.606-.383-1.237-.468-1.88C6.372.792 5.44-.01 4.347 0zm-2.17 1.452h2.184c.364-.004.675.263.726.624.098.745.282 1.482.547 2.192.1.267.036.566-.163.768l-.919.919c-.231.23-.28.588-.118.872 1.098 1.93 2.697 3.53 4.628 4.627.284.162.64.114.872-.118l.922-.921c.198-.197.498-.26.763-.16.711.265 1.449.448 2.2.547.359.051.627.368.618.736v2.196c0 .207-.085.403-.236.54-.15.139-.352.207-.556.189-2.107-.23-4.145-.954-5.934-2.115-1.67-1.06-3.08-2.471-4.138-4.135-1.168-1.804-1.893-3.85-2.12-5.981-.017-.192.051-.393.189-.544.137-.15.331-.236.535-.236z"/>
</svg>
